<svg xmlns = "http://www.w3.org/2000/svg" width = "1000" height = "1000">
<g>
<polygon points = "126.659, 799.936 35.680, 649.055 0.000, 644.265 0.000, 1000.000 62.569, 1000.000 "
fill = "blue" stroke-width ="5" stroke = "black"/>
</g>
<g>
<polygon points = "579.164, 604.159 832.067, 642.019 845.309, 608.609 529.295, 428.267 522.573, 431.043 514.760, 442.623 508.235, 482.581 "
fill = "blue" stroke-width ="5" stroke = "black"/>
</g>
<g>
<polygon points = "375.594, 686.332 416.115, 820.368 461.174, 864.609 624.104, 732.335 581.187, 652.485 "
fill = "blue" stroke-width ="5" stroke = "black"/>
</g>
<g>
<polygon points = "0.000, 46.435 0.000, 391.284 29.565, 390.013 161.355, 152.696 "
fill = "blue" stroke-width ="5" stroke = "black"/>
</g>
<g>
<polygon points = "651.149, 37.372 773.194, 153.742 864.651, 131.871 963.113, 0.000 649.388, 0.000 "
fill = "blue" stroke-width ="5" stroke = "black"/>
</g>
<g>
<polygon points = "223.055, 383.389 213.065, 405.042 349.811, 587.565 508.235, 482.581 514.760, 442.623 "
fill = "blue" stroke-width ="5" stroke = "black"/>
</g>
<g>
<polygon points = "828.814, 747.234 748.018, 773.339 731.371, 851.714 756.306, 1000.000 912.783, 1000.000 "
fill = "blue" stroke-width ="5" stroke = "black"/>
</g>
<g>
<polygon points = "107.695, 596.961 176.386, 435.522 29.565, 390.013 0.000, 391.284 0.000, 644.265 35.680, 649.055 "
fill = "blue" stroke-width ="5" stroke = "black"/>
</g>
<g>
<polygon points = "731.371, 851.714 462.662, 932.883 448.867, 1000.000 756.306, 1000.000 "
fill = "blue" stroke-width ="5" stroke = "black"/>
</g>
<g>
<polygon points = "462.662, 932.883 461.174, 864.609 416.115, 820.368 253.286, 859.824 275.741, 1000.000 448.867, 1000.000 "
fill = "blue" stroke-width ="5" stroke = "black"/>
</g>
<g>
<polygon points = "476.281, 288.019 216.137, 314.842 223.055, 383.389 514.760, 442.623 522.573, 431.043 "
fill = "blue" stroke-width ="5" stroke = "black"/>
</g>
<g>
<polygon points = "461.213, 214.551 651.149, 37.372 649.388, 0.000 392.571, 0.000 "
fill = "blue" stroke-width ="5" stroke = "black"/>
</g>
<g>
<polygon points = "938.357, 287.230 871.107, 268.892 711.972, 355.694 835.495, 555.733 "
fill = "blue" stroke-width ="5" stroke = "black"/>
</g>
<g>
<polygon points = "176.386, 435.522 213.065, 405.042 223.055, 383.389 216.137, 314.842 194.784, 168.471 161.355, 152.696 29.565, 390.013 "
fill = "blue" stroke-width ="5" stroke = "black"/>
</g>
<g>
<polygon points = "460.801, 227.289 460.145, 226.519 233.555, 145.188 194.784, 168.471 216.137, 314.842 476.281, 288.019 "
fill = "blue" stroke-width ="5" stroke = "black"/>
</g>
<g>
<polygon points = "864.651, 131.871 871.107, 268.892 938.357, 287.230 1000.000, 288.586 1000.000, 0.000 963.113, 0.000 "
fill = "blue" stroke-width ="5" stroke = "black"/>
</g>
<g>
<polygon points = "253.286, 859.824 173.409, 794.864 126.659, 799.936 62.569, 1000.000 275.741, 1000.000 "
fill = "blue" stroke-width ="5" stroke = "black"/>
</g>
<g>
<polygon points = "845.782, 736.259 832.067, 642.019 579.164, 604.159 581.187, 652.485 624.104, 732.335 748.018, 773.339 828.814, 747.234 "
fill = "blue" stroke-width ="5" stroke = "black"/>
</g>
<g>
<polygon points = "664.751, 363.204 669.419, 225.657 460.801, 227.289 476.281, 288.019 522.573, 431.043 529.295, 428.267 "
fill = "blue" stroke-width ="5" stroke = "black"/>
</g>
<g>
<polygon points = "845.626, 607.976 845.309, 608.609 832.067, 642.019 845.782, 736.259 1000.000, 777.665 1000.000, 512.164 "
fill = "blue" stroke-width ="5" stroke = "black"/>
</g>
<g>
<polygon points = "0.000, 46.435 161.355, 152.696 194.784, 168.471 233.555, 145.188 285.024, 0.000 0.000, 0.000 "
fill = "blue" stroke-width ="5" stroke = "black"/>
</g>
<g>
<polygon points = "864.651, 131.871 773.194, 153.742 669.419, 225.657 664.751, 363.204 711.972, 355.694 871.107, 268.892 "
fill = "blue" stroke-width ="5" stroke = "black"/>
</g>
<g>
<polygon points = "462.662, 932.883 731.371, 851.714 748.018, 773.339 624.104, 732.335 461.174, 864.609 "
fill = "blue" stroke-width ="5" stroke = "black"/>
</g>
<g>
<polygon points = "461.213, 214.551 460.145, 226.519 460.801, 227.289 669.419, 225.657 773.194, 153.742 651.149, 37.372 "
fill = "blue" stroke-width ="5" stroke = "black"/>
</g>
<g>
<polygon points = "349.811, 587.565 213.065, 405.042 176.386, 435.522 107.695, 596.961 310.789, 640.893 326.548, 635.839 "
fill = "blue" stroke-width ="5" stroke = "black"/>
</g>
<g>
<polygon points = "845.626, 607.976 835.495, 555.733 711.972, 355.694 664.751, 363.204 529.295, 428.267 845.309, 608.609 "
fill = "blue" stroke-width ="5" stroke = "black"/>
</g>
<g>
<polygon points = "310.789, 640.893 107.695, 596.961 35.680, 649.055 126.659, 799.936 173.409, 794.864 "
fill = "blue" stroke-width ="5" stroke = "black"/>
</g>
<g>
<polygon points = "173.409, 794.864 253.286, 859.824 416.115, 820.368 375.594, 686.332 326.548, 635.839 310.789, 640.893 "
fill = "blue" stroke-width ="5" stroke = "black"/>
</g>
<g>
<polygon points = "233.555, 145.188 460.145, 226.519 461.213, 214.551 392.571, 0.000 285.024, 0.000 "
fill = "blue" stroke-width ="5" stroke = "black"/>
</g>
<g>
<polygon points = "845.782, 736.259 828.814, 747.234 912.783, 1000.000 1000.000, 1000.000 1000.000, 777.665 "
fill = "blue" stroke-width ="5" stroke = "black"/>
</g>
<g>
<polygon points = "938.357, 287.230 835.495, 555.733 845.626, 607.976 1000.000, 512.164 1000.000, 288.586 "
fill = "blue" stroke-width ="5" stroke = "black"/>
</g>
<g>
<polygon points = "349.811, 587.565 326.548, 635.839 375.594, 686.332 581.187, 652.485 579.164, 604.159 508.235, 482.581 "
fill = "blue" stroke-width ="5" stroke = "black"/>
</g>
</svg>
