<svg xmlns = "http://www.w3.org/2000/svg" width = "1000" height = "1000">
<g>
<polygon points = "43.424, 671.622 150.740, 849.597 102.559, 1000.000 0.000, 1000.000 0.000, 665.792 "
fill = "blue" stroke-width ="5" stroke = "black"/>
</g>
<g>
<polygon points = "591.296, 434.934 863.522, 590.287 869.352, 598.021 859.240, 623.533 558.523, 578.516 581.296, 439.064 "
fill = "blue" stroke-width ="5" stroke = "black"/>
</g>
<g>
<polygon points = "669.392, 791.463 517.137, 915.071 462.343, 861.274 404.560, 670.137 422.738, 648.397 556.723, 581.834 "
fill = "blue" stroke-width ="5" stroke = "black"/>
</g>
<g>
<polygon points = "157.083, 175.905 34.640, 396.389 0.000, 397.879 0.000, 72.457 "
fill = "blue" stroke-width ="5" stroke = "black"/>
</g>
<g>
<polygon points = "811.185, 129.621 719.659, 151.509 634.261, 70.082 630.959, 0.000 907.967, 0.000 "
fill = "blue" stroke-width ="5" stroke = "black"/>
</g>
<g>
<polygon points = "241.123, 405.985 258.605, 368.093 574.877, 432.316 581.296, 439.064 558.523, 578.516 556.723, 581.834 422.738, 648.397 "
fill = "blue" stroke-width ="5" stroke = "black"/>
</g>
<g>
<polygon points = "885.889, 1000.000 754.611, 1000.000 743.671, 934.937 767.265, 823.850 821.546, 806.312 "
fill = "blue" stroke-width ="5" stroke = "black"/>
</g>
<g>
<polygon points = "34.640, 396.389 193.438, 445.611 121.215, 615.349 43.424, 671.622 0.000, 665.792 0.000, 397.879 "
fill = "blue" stroke-width ="5" stroke = "black"/>
</g>
<g>
<polygon points = "743.671, 934.937 754.611, 1000.000 528.278, 1000.000 "
fill = "blue" stroke-width ="5" stroke = "black"/>
</g>
<g>
<polygon points = "315.564, 896.841 462.343, 861.274 517.137, 915.071 518.988, 1000.000 332.090, 1000.000 "
fill = "blue" stroke-width ="5" stroke = "black"/>
</g>
<g>
<polygon points = "530.212, 294.319 574.877, 432.316 258.605, 368.093 254.033, 322.795 "
fill = "blue" stroke-width ="5" stroke = "black"/>
</g>
<g>
<polygon points = "634.261, 70.082 556.020, 143.068 510.248, 0.000 630.959, 0.000 "
fill = "blue" stroke-width ="5" stroke = "black"/>
</g>
<g>
<polygon points = "869.352, 598.021 863.522, 590.287 737.151, 385.637 821.091, 339.852 1000.000, 388.637 1000.000, 480.891 "
fill = "blue" stroke-width ="5" stroke = "black"/>
</g>
<g>
<polygon points = "238.187, 214.177 254.033, 322.795 258.605, 368.093 241.123, 405.985 193.438, 445.611 34.640, 396.389 157.083, 175.905 "
fill = "blue" stroke-width ="5" stroke = "black"/>
</g>
<g>
<polygon points = "332.073, 157.797 511.862, 222.329 530.212, 294.319 254.033, 322.795 238.187, 214.177 "
fill = "blue" stroke-width ="5" stroke = "black"/>
</g>
<g>
<polygon points = "821.091, 339.852 811.185, 129.621 907.967, 0.000 1000.000, 0.000 1000.000, 388.637 "
fill = "blue" stroke-width ="5" stroke = "black"/>
</g>
<g>
<polygon points = "244.908, 839.379 315.564, 896.841 332.090, 1000.000 102.559, 1000.000 150.740, 849.597 "
fill = "blue" stroke-width ="5" stroke = "black"/>
</g>
<g>
<polygon points = "880.309, 768.304 821.546, 806.312 767.265, 823.850 669.392, 791.463 556.723, 581.834 558.523, 578.516 859.240, 623.533 "
fill = "blue" stroke-width ="5" stroke = "black"/>
</g>
<g>
<polygon points = "552.719, 180.063 679.891, 179.068 672.533, 395.914 591.296, 434.934 581.296, 439.064 574.877, 432.316 530.212, 294.319 511.862, 222.329 "
fill = "blue" stroke-width ="5" stroke = "black"/>
</g>
<g>
<polygon points = "880.309, 768.304 859.240, 623.533 869.352, 598.021 1000.000, 480.891 1000.000, 800.440 "
fill = "blue" stroke-width ="5" stroke = "black"/>
</g>
<g>
<polygon points = "332.073, 157.797 238.187, 214.177 157.083, 175.905 0.000, 72.457 0.000, 0.000 388.011, 0.000 "
fill = "blue" stroke-width ="5" stroke = "black"/>
</g>
<g>
<polygon points = "821.091, 339.852 737.151, 385.637 672.533, 395.914 679.891, 179.068 719.659, 151.509 811.185, 129.621 "
fill = "blue" stroke-width ="5" stroke = "black"/>
</g>
<g>
<polygon points = "767.265, 823.850 743.671, 934.937 528.278, 1000.000 518.988, 1000.000 517.137, 915.071 669.392, 791.463 "
fill = "blue" stroke-width ="5" stroke = "black"/>
</g>
<g>
<polygon points = "679.891, 179.068 552.719, 180.063 556.020, 143.068 634.261, 70.082 719.659, 151.509 "
fill = "blue" stroke-width ="5" stroke = "black"/>
</g>
<g>
<polygon points = "392.449, 674.020 121.215, 615.349 193.438, 445.611 241.123, 405.985 422.738, 648.397 404.560, 670.137 "
fill = "blue" stroke-width ="5" stroke = "black"/>
</g>
<g>
<polygon points = "672.533, 395.914 737.151, 385.637 863.522, 590.287 591.296, 434.934 "
fill = "blue" stroke-width ="5" stroke = "black"/>
</g>
<g>
<polygon points = "121.215, 615.349 392.449, 674.020 244.908, 839.379 150.740, 849.597 43.424, 671.622 "
fill = "blue" stroke-width ="5" stroke = "black"/>
</g>
<g>
<polygon points = "392.449, 674.020 404.560, 670.137 462.343, 861.274 315.564, 896.841 244.908, 839.379 "
fill = "blue" stroke-width ="5" stroke = "black"/>
</g>
<g>
<polygon points = "556.020, 143.068 552.719, 180.063 511.862, 222.329 332.073, 157.797 388.011, 0.000 510.248, 0.000 "
fill = "blue" stroke-width ="5" stroke = "black"/>
</g>
<g>
<polygon points = "885.889, 1000.000 821.546, 806.312 880.309, 768.304 1000.000, 800.440 1000.000, 1000.000 "
fill = "blue" stroke-width ="5" stroke = "black"/>
</g>
</svg>
