<svg xmlns = "http://www.w3.org/2000/svg" width = "1000" height = "1000">
<g>
<polygon points = "150.740, 849.597 43.424, 671.622 0.000, 665.792 0.000, 1000.000 102.559, 1000.000 "
fill = "blue" stroke-width ="5" stroke = "black"/>
</g>
<g>
<polygon points = "622.491, 588.092 859.240, 623.533 861.065, 618.929 849.848, 582.484 591.296, 434.934 581.296, 439.064 571.291, 500.330 "
fill = "blue" stroke-width ="5" stroke = "black"/>
</g>
<g>
<polygon points = "427.776, 746.933 462.343, 861.274 517.137, 915.071 669.392, 791.463 627.763, 714.009 "
fill = "blue" stroke-width ="5" stroke = "black"/>
</g>
<g>
<polygon points = "0.000, 72.457 0.000, 397.879 34.640, 396.389 157.083, 175.905 "
fill = "blue" stroke-width ="5" stroke = "black"/>
</g>
<g>
<polygon points = "634.261, 70.082 719.659, 151.509 811.185, 129.621 907.967, 0.000 630.959, 0.000 "
fill = "blue" stroke-width ="5" stroke = "black"/>
</g>
<g>
<polygon points = "574.877, 432.316 258.605, 368.093 241.123, 405.985 397.894, 615.237 571.291, 500.330 581.296, 439.064 "
fill = "blue" stroke-width ="5" stroke = "black"/>
</g>
<g>
<polygon points = "821.546, 806.312 767.265, 823.850 743.671, 934.937 754.611, 1000.000 885.889, 1000.000 "
fill = "blue" stroke-width ="5" stroke = "black"/>
</g>
<g>
<polygon points = "121.215, 615.349 193.438, 445.611 34.640, 396.389 0.000, 397.879 0.000, 665.792 43.424, 671.622 "
fill = "blue" stroke-width ="5" stroke = "black"/>
</g>
<g>
<polygon points = "743.671, 934.937 528.278, 1000.000 754.611, 1000.000 "
fill = "blue" stroke-width ="5" stroke = "black"/>
</g>
<g>
<polygon points = "517.137, 915.071 462.343, 861.274 315.564, 896.841 332.090, 1000.000 518.988, 1000.000 "
fill = "blue" stroke-width ="5" stroke = "black"/>
</g>
<g>
<polygon points = "530.212, 294.319 254.033, 322.795 258.605, 368.093 574.877, 432.316 "
fill = "blue" stroke-width ="5" stroke = "black"/>
</g>
<g>
<polygon points = "556.020, 143.068 634.261, 70.082 630.959, 0.000 510.248, 0.000 "
fill = "blue" stroke-width ="5" stroke = "black"/>
</g>
<g>
<polygon points = "920.367, 366.923 821.091, 339.852 737.151, 385.637 845.795, 561.579 "
fill = "blue" stroke-width ="5" stroke = "black"/>
</g>
<g>
<polygon points = "254.033, 322.795 238.187, 214.177 157.083, 175.905 34.640, 396.389 193.438, 445.611 241.123, 405.985 258.605, 368.093 "
fill = "blue" stroke-width ="5" stroke = "black"/>
</g>
<g>
<polygon points = "332.073, 157.797 238.187, 214.177 254.033, 322.795 530.212, 294.319 511.862, 222.329 "
fill = "blue" stroke-width ="5" stroke = "black"/>
</g>
<g>
<polygon points = "811.185, 129.621 821.091, 339.852 920.367, 366.923 1000.000, 368.674 1000.000, 0.000 907.967, 0.000 "
fill = "blue" stroke-width ="5" stroke = "black"/>
</g>
<g>
<polygon points = "315.564, 896.841 244.908, 839.379 150.740, 849.597 102.559, 1000.000 332.090, 1000.000 "
fill = "blue" stroke-width ="5" stroke = "black"/>
</g>
<g>
<polygon points = "880.309, 768.304 859.240, 623.533 622.491, 588.092 627.763, 714.009 669.392, 791.463 767.265, 823.850 821.546, 806.312 "
fill = "blue" stroke-width ="5" stroke = "black"/>
</g>
<g>
<polygon points = "672.533, 395.914 679.891, 179.068 552.719, 180.063 511.862, 222.329 530.212, 294.319 574.877, 432.316 581.296, 439.064 591.296, 434.934 "
fill = "blue" stroke-width ="5" stroke = "black"/>
</g>
<g>
<polygon points = "861.065, 618.929 859.240, 623.533 880.309, 768.304 1000.000, 800.440 1000.000, 532.700 "
fill = "blue" stroke-width ="5" stroke = "black"/>
</g>
<g>
<polygon points = "0.000, 72.457 157.083, 175.905 238.187, 214.177 332.073, 157.797 388.011, 0.000 0.000, 0.000 "
fill = "blue" stroke-width ="5" stroke = "black"/>
</g>
<g>
<polygon points = "811.185, 129.621 719.659, 151.509 679.891, 179.068 672.533, 395.914 737.151, 385.637 821.091, 339.852 "
fill = "blue" stroke-width ="5" stroke = "black"/>
</g>
<g>
<polygon points = "743.671, 934.937 767.265, 823.850 669.392, 791.463 517.137, 915.071 518.988, 1000.000 528.278, 1000.000 "
fill = "blue" stroke-width ="5" stroke = "black"/>
</g>
<g>
<polygon points = "556.020, 143.068 552.719, 180.063 679.891, 179.068 719.659, 151.509 634.261, 70.082 "
fill = "blue" stroke-width ="5" stroke = "black"/>
</g>
<g>
<polygon points = "397.894, 615.237 241.123, 405.985 193.438, 445.611 121.215, 615.349 371.727, 669.538 "
fill = "blue" stroke-width ="5" stroke = "black"/>
</g>
<g>
<polygon points = "845.795, 561.579 737.151, 385.637 672.533, 395.914 591.296, 434.934 849.848, 582.484 "
fill = "blue" stroke-width ="5" stroke = "black"/>
</g>
<g>
<polygon points = "375.455, 693.067 371.727, 669.538 121.215, 615.349 43.424, 671.622 150.740, 849.597 244.908, 839.379 "
fill = "blue" stroke-width ="5" stroke = "black"/>
</g>
<g>
<polygon points = "375.455, 693.067 244.908, 839.379 315.564, 896.841 462.343, 861.274 427.776, 746.933 "
fill = "blue" stroke-width ="5" stroke = "black"/>
</g>
<g>
<polygon points = "332.073, 157.797 511.862, 222.329 552.719, 180.063 556.020, 143.068 510.248, 0.000 388.011, 0.000 "
fill = "blue" stroke-width ="5" stroke = "black"/>
</g>
<g>
<polygon points = "880.309, 768.304 821.546, 806.312 885.889, 1000.000 1000.000, 1000.000 1000.000, 800.440 "
fill = "blue" stroke-width ="5" stroke = "black"/>
</g>
<g>
<polygon points = "920.367, 366.923 845.795, 561.579 849.848, 582.484 861.065, 618.929 1000.000, 532.700 1000.000, 368.674 "
fill = "blue" stroke-width ="5" stroke = "black"/>
</g>
<g>
<polygon points = "397.894, 615.237 371.727, 669.538 375.455, 693.067 427.776, 746.933 627.763, 714.009 622.491, 588.092 571.291, 500.330 "
fill = "blue" stroke-width ="5" stroke = "black"/>
</g>
</svg>
